<svg width="373" height="84" viewBox="0 0 373 84" fill="none" xmlns="http://www.w3.org/2000/svg">
<rect width="84" height="84" rx="13" fill="#D50000"/>
<rect width="14" height="40" transform="matrix(1 0 0 -1 35 61)" fill="white"/>
<path d="M33 40L20.25 50.3923V29.6077L33 40Z" fill="white"/>
<path d="M51.1985 40.1745L63.9817 50.7179V29.6311L51.1985 40.1745Z" fill="white"/>
<path d="M143.736 26.64V60H138.264V37.152L128.088 60H124.296L114.072 37.152V60H108.6V26.64H114.504L126.216 52.8L137.88 26.64H143.736ZM153.712 30.048C152.72 30.048 151.888 29.712 151.216 29.04C150.544 28.368 150.208 27.536 150.208 26.544C150.208 25.552 150.544 24.72 151.216 24.048C151.888 23.376 152.72 23.04 153.712 23.04C154.672 23.04 155.488 23.376 156.16 24.048C156.832 24.72 157.168 25.552 157.168 26.544C157.168 27.536 156.832 28.368 156.16 29.04C155.488 29.712 154.672 30.048 153.712 30.048ZM156.4 33.552V60H150.928V33.552H156.4ZM176.928 33.12C179.008 33.12 180.864 33.552 182.496 34.416C184.16 35.28 185.456 36.56 186.384 38.256C187.312 39.952 187.776 42 187.776 44.4V60H182.352V45.216C182.352 42.848 181.76 41.04 180.576 39.792C179.392 38.512 177.776 37.872 175.728 37.872C173.68 37.872 172.048 38.512 170.832 39.792C169.648 41.04 169.056 42.848 169.056 45.216V60H163.584V33.552H169.056V36.576C169.952 35.488 171.088 34.64 172.464 34.032C173.872 33.424 175.36 33.12 176.928 33.12Z" fill="black"/>
<path d="M200.18 26.64V47.904C200.18 50.432 200.836 52.336 202.148 53.616C203.492 54.896 205.348 55.536 207.716 55.536C210.116 55.536 211.972 54.896 213.284 53.616C214.628 52.336 215.3 50.432 215.3 47.904V26.64H220.772V47.808C220.772 50.528 220.18 52.832 218.996 54.72C217.812 56.608 216.228 58.016 214.244 58.944C212.26 59.872 210.068 60.336 207.668 60.336C205.268 60.336 203.076 59.872 201.092 58.944C199.14 58.016 197.588 56.608 196.436 54.72C195.284 52.832 194.708 50.528 194.708 47.808V26.64H200.18ZM233.369 37.392C234.169 36.048 235.225 35.008 236.537 34.272C237.881 33.504 239.465 33.12 241.289 33.12V38.784H239.897C237.753 38.784 236.121 39.328 235.001 40.416C233.913 41.504 233.369 43.392 233.369 46.08V60H227.897V33.552H233.369V37.392ZM251.791 24.48V60H246.319V24.48H251.791Z" fill="#D50000"/>
</svg>
